<svg version="1.1" xmlns="http://www.w3.org/2000/svg" viewBox="0 0 2000 1001" style="background: transparent;">
  <style>
    .land { fill: #333333; stroke: #444444; stroke-width: 0.5; }
  </style>
  <g class="map-layer">
    <!-- Russia/Asia -->
    <path class="land" d="M1419.8,138.8L1409,144l-2.7,8.9l-6.2,3.3l-10-10.4l-11.2,1.2l-2.5,4.4l-11.8,4.1l-14.5-0.9l-11.2-5.6l-20.7,0.3L1302,152l-9.8-0.9l-13.9,7.1l-12.7,13.6l-5.6,3.6l-14.8-5l-8-6.2l-1.8-9.8l-8.6-6.5l-8.9-1.8l-1.5-6.5l14.2-12.1l15.1-6.8l2-7.1l8.9-4.7l6.5-6.8L1266,97l-2.4-7.4l4.7-9.5l-2.4-6.5l5.9-4.1l20.4,5l8.6,8.9l3.6,18.9l16.3,9.5l6.5,12.7L1341,120l13.6,10.6l10-1.8l3-8l12.4-0.9l1.8,4.7l13.3,2.4l11.2-1.2L1419.8,138.8z"/>
    <!-- Europe/Africa/Asia contiguous block simplified significantly for detailed look without massive size -->
    <path class="land" d="M968,64l-2.8,10l4.3,9.1l-5.4,3.7l-9.8-3.4l-4.9-5.7l-0.5-8.8l-7.2-2.3l-8.5-5.1l-6.7,2l-8,8.2l-8,1.4l-3.4,6l4.4,7.4l-2.6,3.4l-6.2-8l-8-1.7l-8.5,8.8l-6.2,2.3l-8.8-1.7l-3.6,6.5l2.6,10.8l-3.6,6l-8.2,2.8l-4.1,6.5l4.6,6l-2.8,4.3l-11.6,2l-6.5,8l-9.6,4l-12.9-0.9l-9-6.3l-7.7,0.3l-11.9,6.5l-2.3-5.4l2.6-7.4l-5.9-4.5l-2.6-6.5l6.7-10.8l3.1-9.9l-3.6-7.1l-3.9,0.3l-3.9-9.9L805.9,81l-4.1-1.7l-3.9,3.7l-6.7-1.1l-10.3,5.1l-11.1,0.6l-9.3,7.4l-7.5,0.6l-7,7.1l-10.3-3.1L728,97l-3.4,7.4l-0.5,17l-5.7,13.6l-8.5,8l-1.3,9.6l3.9,9.4L707,175l-7.2,16.2l-2.1,13.1l6.7,13.4l10.8,4.3l4.6,8.2l-3.6,12.2l-10.6,10.2l-7.7,3.1l-12.4,14.2l-2.8,7.4l-22.9,13.9l-11.6-4.3l-10.6,2l-6.2,10.5l-19.1,6.3l-8.2,12.8L616,330l-7.7,6.8l-3.6,7.7l4.4,5.4l10.3-0.3l0.3,4.5l-4.9,3.7l-6.2,11.1l11.1,9.4l1.3,8l-10.3,16.5l-5.9,2.8l10.3,14.5l23.7,11.4l3.1,6.2l-2.6,13.1l13.1,8.8l9,11.4l17.5,7.7l16,16.2l12.4,4l9-3.7l11.3,7.4l20.4,1.4l4.4-6.2l3.6-14.8l12.4-14.2l8.2-15.6l5.7-8l-2.6-9.6l-9.5-6.5l1.5-13.6l-4.1-8.5l9.3-15.9l-5.7-27.5l-9.5-17.6l2.1-12.2l11.9-10.2l0.3-11.4l8.2-12.5l10.8-7.7l2.8-5.4l-2.6-7.4l14.7-12.2l9.8,2.3l4.6-7.1L824,310l4.9-6.3L826,293l4.4-2.8l8,0.6l6.4,7.4l6.4-1.7l14.7,6.8l13.9-3.4l12.4,7.6l10.6-2l9-7.1l17.8-0.9l9-6.5l8.8,1.7l8-2.6l17.8,7.1l11.3,11.1l18.8,3.4l18.3,12.2l18.3,3.7l10.8-1.7l18.3-9.1l8.2,4.8l20.1,28.9l5.9,2.8l4.4,12.2l7,7.1l4.4,18.7l5.4,3.1l5.4,8.5l12.4,3.7l7.5,12.8l11.6-0.3l4.9-6.5l-5.9-11.9l-7-5.1l-2.3-9.9l1.3-3.7l6.7-2l6.4,2.6l2.1,8.2l-5.7,8.2l5.7,7.4l-2.6,5.1l-7.7,1.1l-4.9-3.1l-8,1.7l-4.9,9.4l0.3,4l6.7,2.8l2.6,5.7l11.9,4.5l6.4-7.4l16.2-7.1L1142,434l3.1-7.1l-1-7.7l-9.3-13.6l0.3-6.5l3.4-6l-1.3-4.5l-5.4-4.8l-1.8-6l3.4-8.8l-3.9-6l-10-8.5l-2.6-5.4l4.1-8l5.4-2.6l4.6,2.6l4.6-4.5l7-1.1l-2.3-8.8l-10.6-5.7l-7.2-11.9l-0.5-6.8l4.9-2.3l5.2,5.1l7.7,1.7l3.6-5.1l10.8-3.7l4.6-9.1l17.8-12.8l9.5-17.6l5.7-4.3l6.4,5.4l9.5,2l6.2-2l7-6l3.6-13.6l12.6-7.7l-2.1-7.1l-10-10.2l-12.4-3.4l-3.1-6.8l0.5-16.5l5.2-19l19.1-8.5l18.5-8.8l5.9-8.5l15.5-13.4l12.6,2l17,7.1l11.9,1.7l8.2-4.5l-6.4-14.5l-19.1-13.9l-30.2,1.7l-24.5-9.4l-14.7-2.6l-5.9-4.8l-14.2,4.8l-13.4-3.7l-8-7.7l-15.7-5.7l-3.9-9.1l-0.5-12.5l5.9-14.2l-4.6-9.9l-11.9-5.1l-14.7-1.1l-5.9-3.1l-14.9,3.1l-6.2,8l-15.5,1.7l-14.9,10.2l-14.4-4.5l-6.2-12.8M1750,560l-3,10l12,5l8,10l-10,12l-5,5l-15-5l-10-15l-5-10l5-8l15-2L1750,560z"/>
    <!-- North/South America -->
    <path class="land" d="M165.6,183.1l5.4-11.9l2.8-17l19.3-15l22.7,2.8l51.8,7.9l46.1,10.2l12.1-4l5.4,7.4l1.8,17l-10.3,9.1l-17.3,1.1l-2.8,7.9l4.4,24.4l-11.1,15.3l-12.1,11.3l-5.4,17.6l10.3,14.7l17,9.6l23.7,11.3l12.4,9.6l6.7,10.8l-5.7,25.5l9,9.1l-0.8,11.9l6.4,9.1l26.5,8.5l30.9,15.9l19.3,10.2l9.5,10.2l-3.4,15.3l3.6,15.9l11.1,14.7l-0.8,19.8l-9.5,23.8l-3.9,23.2l5.7,26.1l-3.9,18.7l-8.5,11.9l-11.1,5.1l-5.7-6.2l-6.7-14.7l-6.4-17.6l-4.1-17.6l-3.1-26.6l-8-27.2l-12.1-23.2l-15.5-22.1l-17-21.5l-14.2-18.1l-22.9-20.4l-8.8-15.3l-5.4-8.5l-3.6-11.9l1.8-16.4l-2.6-17.6l-11.9-28.9l-8.2-10.8l-18-12.5l-15.5-17l-9.8-15.3l-8.5-7.4l-27.8-0.6l-15.5,5.1l-7,7.4l-6.2-7.4l1.3-9.1l11.1-15.9l5.9-10.2l12.9-8.5l7.7,2.3l13.4-10.2L165.6,183.1z"/>
    <!-- Australia -->
    <path class="land" d="M1524,677l15-5l10,5l15,20l-5,10l-15,5l-20-10l-10-15l5-8L1524,677z"/>
  </g>
</svg>
