<svg viewBox="0 0 1009.6727 665.96301" xmlns="http://www.w3.org/2000/svg" style="background-color: transparent;">
  <g fill="#333333" stroke="none">
    <!-- South America -->
    <path d="M286.6,448.7l11.4,18.8l-4.5,14.6l5.7,11.4l-3.3,13.8l7.3,8.1l-0.8,11.4l9.8,12.2l-2.4,9.8l8.1,5.7l2.4-5.7l13-0.8l5.7,4.9l7.3-4.1l11.4,4.1l4.9-6.5l14.6-0.8l4.1-12.2l-4.9-6.5l2.4-15.4l20.3-4.9l8.1-11.4l-4.1-9.8l10.6-11.4l-0.8-13l8.1-3.3l4.9-10.6l-5.7-18.7l-15.4-8.9l-11.4-17.1l-10.6-5.7l-9.8,3.3l-13.8-6.5l-20.3,5.7l-1.6,12.2l-14.6,8.1l-7.3,7.3l-5.7,12.2L286.6,448.7z"/>
    <!-- North America -->
    <path d="M168.6,180.4l-11.4,22.8l13.8,17.9l-2.4,10.6l10.6,11.4l-9.8,17.1l15.4,12.2l12.2-0.8l11.4,9.8l9.8-1.6l4.9,13l13.8,4.1l10.6,13.8l20.3,4.9l12.2-7.3l-0.8-13l13.8-6.5l6.5-13l13-3.3l7.3-13.8l-8.1-9.8l-3.3-14.6l13-10.6l9.8-21.1l-1.6-13.8l-15.4-8.9l-7.3-14.6l-13-1.6l-8.1,7.3l-14.6,1.6l-10.6-9.8l-23.6,1.6l-17.9,8.1l-12.2,9.8l-17.9-6.5L168.6,180.4z M100.3,117.8l26,1.6l20.3,13l17.1-1.6l14.6-9.8l12.2,6.5l17.9-9.8l7.3-17.9l-13-13l-28.5-3.3l-22.8,9.8l-18.7,17.1L100.3,117.8z"/>
    <!-- Africa -->
    <path d="M485.1,288.6l-9.8,17.1l6.5,13l-3.3,12.2l12.2,20.3l17.9,6.5l4.9,16.3l17.1,8.1l13-4.1l9.8,8.1l-1.6,13l12.2,12.2l-7.3,23.6l-15.4,21.1l5.7,17.1l-5.7,11.4l11.4,13.8l21.1,0.8l14.6-7.3l12.2-18.7l23.6-21.1l8.1-32.5l-4.1-17.1l7.3-14.6l-11.4-15.4l1.6-13l-12.2-9.8l-2.4-14.6l-12.2-4.9l-4.9-10.6l-14.6-3.3l-13-13l-23.6-3.3l-35,4.9L485.1,288.6z"/>
    <!-- Europe -->
    <path d="M470.4,166.6l4.9,13l15.4,6.5l8.1-4.1l12.2,2.4l14.6-7.3l4.9-13.8l23.6,1.6l12.2-11.4l6.5,7.3l13.8-3.3l4.9-10.6l-8.1-10.6l-15.4,0.8l-12.2-8.1l-13,5.7l-9.8,13.8l-22.8-1.6l-14.6,4.9L470.4,166.6z M539.6,132.4l6.5,8.1l12.2-4.1l2.4-11.4l-11.4-6.5l-10.6,5.7L539.6,132.4z"/>
    <!-- Asia -->
    <path d="M604.6,145.4l13.8,9.8l18.7-1.6l17.1-13l23.6-0.8l17.9,11.4l14.6-2.4l20.3,12.2l12.2-2.4l8.1-12.2l13,5.7l22.8,26l-3.3,11.4l-11.4,3.3l-5.7,13l13.8,17.1l1.6,14.6l-9.8,9.8l3.3,10.6l-7.3,9.8l-17.1,4.1l-12.2-10.6l-13,5.7l-13.8-8.1l-4.9-12.2l-15.4-2.4l-11.4,8.1l-18.7,3.3l-12.2-5.7l-8.1-15.4l-13.8,1.6l-8.1-9.8l4.1-14.6l-8.1-12.2l0.8-15.4l-20.3-6.5l-4.1-13L604.6,145.4z M776.2,298.3l11.4,11.4l17.1,0.8l5.7-9.8l-15.4-12.2l-15.4,3.3L776.2,298.3z M867.3,371.5l14.6,9.8l14.6-4.9l2.4-11.4l-11.4-8.1l-16.3,3.3L867.3,371.5z"/>
    <!-- Australia -->
    <path d="M813.6,478.7l28.5,8.1l18.7-2.4l20.3,9.8l8.1-6.5l-4.1-16.3l9.8-9.8l-4.9-15.4l-15.4-7.3l-28.5,4.9l-19.5,18.7L813.6,478.7z"/>
  </g>
</svg>
